<svg width="24" height="24" viewBox="0 0 24 24" fill="none" xmlns="http://www.w3.org/2000/svg">
<g clip-path="url(#clip0_3_759)">
<path d="M11.625 0.375C5.20467 0.375 0 5.57967 0 12C0 18.4203 5.20467 23.625 11.625 23.625C18.0453 23.625 23.25 18.4203 23.25 12C23.25 5.57967 18.0453 0.375 11.625 0.375ZM17.0134 8.28094C16.8384 10.1191 16.0815 14.5799 15.6962 16.6388C15.5332 17.5099 15.2123 17.802 14.9017 17.8305C14.2267 17.8927 13.714 17.3844 13.0602 16.9558C12.037 16.2851 11.459 15.8676 10.4658 15.2131C9.31809 14.4568 10.0621 14.0413 10.7162 13.3616C10.8874 13.1838 13.8619 10.4783 13.9194 10.2329C13.9266 10.2022 13.9335 10.0875 13.8653 10.0274C13.7972 9.96717 13.6971 9.98756 13.6246 10.0039C13.522 10.0272 11.8875 11.1076 8.72114 13.245C8.25723 13.5635 7.83702 13.7187 7.46048 13.7106C7.04541 13.7017 6.24698 13.476 5.65341 13.283C4.92539 13.0463 4.34677 12.9212 4.39716 12.5193C4.42341 12.31 4.71169 12.0959 5.262 11.8771C8.65094 10.4006 10.9108 9.4272 12.0414 8.95683C15.2698 7.614 15.9406 7.38075 16.3779 7.37297C16.4741 7.37137 16.6891 7.39519 16.8284 7.5082C16.921 7.58871 16.9801 7.70106 16.9938 7.82302C17.0174 7.97445 17.024 8.12805 17.0134 8.28094Z" fill="#635959"/>
</g>
<defs>
<clipPath id="clip0_3_759">
<rect width="23.25" height="24" fill="white"/>
</clipPath>
</defs>
</svg>
